<svg xmlns="http://www.w3.org/2000/svg" xmlns:xlink="http://www.w3.org/1999/xlink" width="250" zoomAndPan="magnify" viewBox="0 0 187.5 119.999999" height="160" preserveAspectRatio="xMidYMid meet" version="1.0"><defs><clipPath id="39af039784"><path d="M 0 0.160156 L 187 0.160156 L 187 119.839844 L 0 119.839844 Z M 0 0.160156 " clip-rule="nonzero"/></clipPath></defs><g clip-path="url(#39af039784)"><path fill="#ffffff" d="M 0 0.160156 L 187 0.160156 L 187 119.839844 L 0 119.839844 Z M 0 0.160156 " fill-opacity="1" fill-rule="nonzero"/><path fill="#ffffff" d="M 0 0.160156 L 187 0.160156 L 187 119.839844 L 0 119.839844 Z M 0 0.160156 " fill-opacity="1" fill-rule="nonzero"/></g><path fill="#00aeef" d="M 93.3125 93.394531 L 60.199219 60.128906 L 69.75 50.535156 C 69.75 50.535156 69.753906 50.53125 69.753906 50.53125 L 93.3125 26.863281 L 116.871094 50.53125 C 116.875 50.535156 116.875 50.535156 116.878906 50.539062 L 126.425781 60.128906 Z M 93.3125 93.394531 " fill-opacity="1" fill-rule="nonzero"/><path fill="#33bef2" d="M 93.3125 26.863281 L 113.660156 6.421875 C 118.9375 1.121094 127.492188 1.121094 132.765625 6.421875 L 156.328125 30.089844 L 126.421875 60.128906 L 116.875 50.539062 C 116.871094 50.539062 116.871094 50.535156 116.867188 50.53125 Z M 93.3125 26.863281 " fill-opacity="1" fill-rule="nonzero"/><path fill="#66cef5" d="M 126.421875 60.128906 L 156.328125 30.089844 L 176.675781 50.53125 C 181.949219 55.832031 181.949219 64.425781 176.675781 69.722656 L 156.328125 90.164062 Z M 126.421875 60.128906 " fill-opacity="1" fill-rule="nonzero"/><path fill="#99dff9" d="M 126.421875 60.128906 L 156.324219 90.167969 L 132.761719 113.835938 C 127.488281 119.136719 118.933594 119.136719 113.65625 113.835938 L 93.308594 93.394531 Z M 126.421875 60.128906 " fill-opacity="1" fill-rule="nonzero"/><path fill="#002c3c" d="M 60.199219 60.128906 L 30.292969 30.089844 L 53.855469 6.421875 C 59.128906 1.121094 67.683594 1.121094 72.957031 6.421875 L 92.378906 25.929688 L 93.308594 26.863281 L 69.75 50.53125 C 69.75 50.53125 69.75 50.535156 69.746094 50.535156 Z M 60.199219 60.128906 " fill-opacity="1" fill-rule="nonzero"/><path fill="#005778" d="M 60.199219 60.128906 L 30.292969 90.167969 L 9.945312 69.726562 C 4.667969 64.429688 4.664062 55.835938 9.945312 50.535156 L 30.292969 30.09375 Z M 60.199219 60.128906 " fill-opacity="1" fill-rule="nonzero"/><path fill="#0083b3" d="M 53.855469 113.832031 L 30.292969 90.164062 L 60.199219 60.128906 L 93.3125 93.394531 L 72.960938 113.832031 C 67.683594 119.136719 59.132812 119.136719 53.855469 113.832031 Z M 53.855469 113.832031 " fill-opacity="1" fill-rule="nonzero"/></svg>