<svg id="Layer_1" data-name="Layer 1" xmlns="http://www.w3.org/2000/svg" viewBox="0 0 152.93 40"><defs><style>.cls-1{fill:#6e759d;}.cls-2{fill:#022c3c;}.cls-3{fill:#01577a;}.cls-4{fill:#0082b3;}.cls-5{fill:#66cef5;}.cls-12,.cls-6{fill:#35bdef;}.cls-7{fill:#01afec;}.cls-8{fill:#99dff9;}.cls-9{fill:#2a2a2a;}.cls-10{fill:#f25c5c;}.cls-11{fill:#757575;}.cls-12{font-size:14.47px;font-family:Poppins-Bold, Poppins;font-weight:700;}</style></defs><path class="cls-1" d="M39,21.17l-9,9L19.74,20,30,9.79l9,9A1.65,1.65,0,0,1,39,21.17Z"/><path class="cls-2" d="M30,9.79,19.74,20,9.53,9.79l9-9a1.65,1.65,0,0,1,2.33,0Z"/><path class="cls-3" d="M19.74,20,9.53,30.21l-9-9a1.67,1.67,0,0,1,0-2.34l9-9Z"/><path class="cls-4" d="M30,30.21l-9,9a1.65,1.65,0,0,1-2.33,0l-9-9L19.74,20Z"/><path class="cls-5" d="M59.41,21.17l-9,9L40.15,20,50.36,9.79l9,9A1.67,1.67,0,0,1,59.41,21.17Z"/><path class="cls-6" d="M50.36,9.79,40.15,20,29.94,9.79,39,.74a1.65,1.65,0,0,1,2.33,0Z"/><path class="cls-7" d="M40.15,20,29.94,30.21l-9-9a1.65,1.65,0,0,1,0-2.34l9-9Z"/><path class="cls-8" d="M50.36,30.21l-9,9a1.65,1.65,0,0,1-2.33,0l-9-9L40.15,20Z"/><rect class="cls-9" x="69.69" width="0.3" height="40"/><path class="cls-2" d="M85.18,16.89c0,2.22-1.63,3.43-3.72,3.43h-5.8V7.78H81c2.11,0,3.78,1.27,3.78,3.49A2.86,2.86,0,0,1,83.21,14,2.93,2.93,0,0,1,85.18,16.89Zm-4.54-6.67H78.42v2.7h2.22A1.37,1.37,0,0,0,82,11.56,1.34,1.34,0,0,0,80.64,10.22Zm1.78,6.32a1.36,1.36,0,0,0-1.36-1.36H78.42v2.7h2.64A1.33,1.33,0,0,0,82.42,16.54Z"/><path class="cls-2" d="M95.53,16.58h-6.4a1.84,1.84,0,0,0,2,1.92,1.66,1.66,0,0,0,1.75-1.06H95.4a4,4,0,0,1-4.28,3c-2.8,0-4.69-1.73-4.69-4.35A4.28,4.28,0,0,1,91,11.77a4.18,4.18,0,0,1,4.5,4.35ZM89.3,15h3.47a1.63,1.63,0,0,0-1.69-1.15A1.73,1.73,0,0,0,89.3,15Z"/><path class="cls-2" d="M97.39,6h2.68V20.32H97.39Z"/><path class="cls-2" d="M102.54,6h2.67V20.32h-2.67Z"/><path class="cls-6" d="M118.05,6h2.68V20.32h-2.68Z"/><path class="cls-6" d="M123.11,9.09a1.47,1.47,0,1,1,1.47,1.47A1.49,1.49,0,0,1,123.11,9.09Zm.13,2.87h2.65v8.36h-2.65Z"/><path class="cls-6" d="M136.48,15v5.29h-2.66V15.47a1.27,1.27,0,0,0-1.32-1.31,1.34,1.34,0,0,0-1.4,1.31v4.85h-2.68V12h2.68v1a3,3,0,0,1,2.39-1.19A3.09,3.09,0,0,1,136.48,15Z"/><rect class="cls-6" x="138.82" y="11.96" width="2.66" height="8.36"/><polygon class="cls-10" points="142.11 7.79 142.11 9.32 140.91 9.32 140.91 10.52 139.38 10.52 139.38 9.32 138.18 9.32 138.18 7.79 139.38 7.79 139.38 6.6 140.91 6.6 140.91 7.79 142.11 7.79"/><path class="cls-6" d="M149.4,16.16l3.53,4.16h-3.2L147.81,18l-1.92,2.28h-3.22l3.53-4.18L142.67,12h3.17l1.95,2.3,1.94-2.3h3.2Z"/><path class="cls-11" d="M75.92,27.67v1.47H77.8v.79H75.92v1.46h2.17v.79h-3V26.89h3v.78Z"/><path class="cls-11" d="M81,29.36h-.89v2.82h-.84V29.36h-.59v-.71h.59v-1.6a1.18,1.18,0,0,1,1.2-1.15A1.12,1.12,0,0,1,81,26v.66H80.6a.46.46,0,0,0-.45.5v1.49H81Z"/><path class="cls-11" d="M82.68,28.65h.89v.71h-.89v2.82h-.84V29.36h-.59v-.71h.59v-1.6A1.18,1.18,0,0,1,83,25.9a1.12,1.12,0,0,1,.51.1v.66h-.41a.46.46,0,0,0-.46.5Zm1.46-1.12a.51.51,0,1,1,.51.5A.51.51,0,0,1,84.14,27.53Zm.09,1.12h.83v3.53h-.83Z"/><path class="cls-11" d="M86,30.42a1.83,1.83,0,0,1,1.9-1.84A1.8,1.8,0,0,1,89.75,30h-.87a1.05,1.05,0,1,0,0,.9h.87A1.9,1.9,0,0,1,86,30.42Z"/><path class="cls-11" d="M90.49,27.53A.51.51,0,1,1,91,28,.51.51,0,0,1,90.49,27.53Zm.09,1.12h.83v3.53h-.83Z"/><path class="cls-11" d="M96.11,30.55H93.22a1,1,0,0,0,1,1,1,1,0,0,0,1-.61h.84a1.77,1.77,0,0,1-1.79,1.31,1.84,1.84,0,1,1,0-3.67,1.79,1.79,0,0,1,1.86,1.82ZM93.29,30H95.2a.94.94,0,0,0-.93-.66A1,1,0,0,0,93.29,30Z"/><path class="cls-11" d="M100.05,29.94v2.24h-.83V30a.66.66,0,0,0-.68-.67.67.67,0,0,0-.69.67v2.15H97V28.65h.84V29a1.23,1.23,0,0,1,.91-.41A1.33,1.33,0,0,1,100.05,29.94Z"/><path class="cls-11" d="M102.13,29.36V31a.46.46,0,0,0,.47.5h.4v.65a1.1,1.1,0,0,1-.51.11,1.19,1.19,0,0,1-1.2-1.16V29.36h-.58v-.71h.58V27.2h.84v1.45H103v.71Z"/><text class="cls-12" transform="translate(106.47 20.28)">C</text></svg>