<?xml version="1.0" encoding="UTF-8"?>
<svg id="Layer_2" data-name="Layer 2" xmlns="http://www.w3.org/2000/svg" viewBox="0 0 454.37 135.22">
  <defs>
    <style>
      .cls-1 {
        fill: #fff;
      }

      .cls-2 {
        fill: #93d9f3;
      }

      .cls-3 {
        fill: #71706e;
      }

      .cls-4 {
        fill: #0082b3;
      }

      .cls-5 {
        fill: #66cef5;
      }

      .cls-6 {
        fill: #f25c5c;
      }

      .cls-7 {
        fill: #015778;
      }

      .cls-8 {
        fill: #6e759d;
      }

      .cls-9 {
        fill: #35bdef;
      }

      .cls-10 {
        fill: #02aeee;
      }

      .cls-11 {
        fill: #06293c;
      }
    </style>
  </defs>
  <g id="Layer_1-2" data-name="Layer 1">
    <g>
      <path class="cls-8" d="M131.82,71.55l-30.58,30.58-34.52-34.52,34.52-34.52,30.58,30.58c2.17,2.17,2.17,5.71,0,7.88Z"/>
      <path class="cls-11" d="M101.24,33.09l-34.52,34.52-34.52-34.52L62.79,2.52c2.17-2.17,5.7-2.18,7.88,0l30.58,30.58Z"/>
      <path class="cls-7" d="M66.73,67.61l-34.52,34.52L1.63,71.55c-2.18-2.18-2.17-5.71,0-7.88l30.58-30.58,34.52,34.52Z"/>
      <path class="cls-4" d="M101.24,102.13l-30.58,30.58c-2.17,2.17-5.71,2.17-7.88,0l-30.58-30.58,34.52-34.52,34.52,34.52Z"/>
      <g>
        <path class="cls-5" d="M200.83,71.55l-30.58,30.58-34.52-34.52,34.52-34.52,30.58,30.58c2.17,2.17,2.17,5.71,0,7.88Z"/>
        <path class="cls-9" d="M170.25,33.09l-34.52,34.52-34.52-34.52,30.58-30.58c2.17-2.17,5.7-2.18,7.88,0l30.58,30.58Z"/>
        <path class="cls-10" d="M135.73,67.61l-34.52,34.52-30.58-30.58c-2.18-2.18-2.17-5.71,0-7.88l30.58-30.58,34.52,34.52Z"/>
        <path class="cls-2" d="M170.25,102.13l-30.58,30.58c-2.17,2.17-5.71,2.17-7.88,0l-30.58-30.58,34.52-34.52,34.52,34.52Z"/>
      </g>
    </g>
    <rect class="cls-1" x="225.74" width="1.02" height="135.22"/>
    <path class="cls-1" d="M275.31,45.15c0,5.68-4.13,8.57-9.39,8.57h-14.92v-30.97h13.73c5.32,0,9.55,3.1,9.55,8.72,0,3.25-1.34,5.32-3.51,6.5,2.74,1.19,4.54,3.46,4.54,7.17ZM263.75,29.61h-4.85v5.47h4.85c1.45,0,2.63-1.34,2.63-2.74s-1.19-2.74-2.63-2.74ZM267.41,44.11c0-1.39-1.14-2.74-2.68-2.74h-5.83v5.47h5.83c1.55,0,2.68-1.29,2.68-2.74Z"/>
    <path class="cls-1" d="M300.65,43.34v1.29h-15.07c.21,2.68,1.29,4.13,4.03,4.13,1.96,0,3.15-.77,3.51-2.12h7.28c-.93,4.49-4.7,7.48-10.74,7.48-7.17,0-11.77-4.13-11.77-10.74s4.65-10.79,11.56-10.79,11.25,4.13,11.2,10.74ZM285.99,40.4h6.97c-.46-1.39-1.5-2.17-3.35-2.17-2.01,0-3.1.77-3.61,2.17Z"/>
    <path class="cls-1" d="M304.89,19.18h7.64v34.53h-7.64V19.18Z"/>
    <path class="cls-1" d="M318.2,19.18h7.64v34.53h-7.64V19.18Z"/>
    <path class="cls-10" d="M330.44,38.23c0-8.78,7.07-15.9,15.9-15.9,6.14,0,11.51,3.51,14.14,8.67l-6.81,3.46c-1.34-2.68-4.03-4.39-7.33-4.39-4.7,0-8.21,3.46-8.21,8.16s3.51,8.16,8.21,8.16c3.3,0,5.99-1.7,7.33-4.39l6.81,3.46c-2.63,5.16-8,8.67-14.14,8.67-8.83,0-15.9-7.12-15.9-15.9Z"/>
    <path class="cls-10" d="M364.56,19.18h7.64v34.53h-7.64V19.18Z"/>
    <path class="cls-10" d="M377.61,25.63c0-2.22,1.86-4.03,4.08-4.03s4.08,1.81,4.08,4.03-1.86,4.08-4.08,4.08-4.08-1.86-4.08-4.08ZM377.87,33.07h7.64v20.65h-7.64v-20.65Z"/>
    <path class="cls-10" d="M412.46,40.65v13.06h-7.64v-11.56c0-1.65-1.14-2.84-2.84-2.84s-3.1,1.19-3.1,2.84v11.56h-7.64v-20.65h7.64v2.94c1.5-2.06,3.72-3.36,6.25-3.36,4.13,0,7.33,3.41,7.33,8Z"/>
    <path class="cls-10" d="M417.62,33.07h7.64v20.65h-7.64v-20.65Z"/>
    <polygon class="cls-6" points="428.32 19.55 425.26 19.55 425.26 16.48 417.62 16.48 417.62 19.55 414.56 19.55 414.56 27.19 417.62 27.19 417.62 30.25 425.26 30.25 425.26 27.19 428.32 27.19 428.32 19.55"/>
    <path class="cls-10" d="M445.6,43.44l8.77,10.27h-9.19l-4.13-4.9-4.18,4.9h-9.19l8.78-10.32-8.78-10.32h9.08l4.23,4.96,4.23-4.96h9.14l-8.77,10.38Z"/>
    <g>
      <path class="cls-3" d="M256.4,70.65v5.3h6.81v2.88h-6.81v5.3h7.86v2.84h-10.99v-19.17h10.99v2.84h-7.86Z"/>
      <path class="cls-3" d="M274.93,76.75h-3.23v10.22h-3.04v-10.22h-2.14v-2.56h2.14v-5.78c0-2.33,1.98-4.19,4.34-4.19.74,0,1.53.16,1.85.38v2.36h-1.5c-.93,0-1.66.7-1.66,1.82v5.4h3.23v2.56Z"/>
      <path class="cls-3" d="M280.88,74.19h3.23v2.56h-3.23v10.22h-3.04v-10.22h-2.14v-2.56h2.14v-5.78c0-2.33,1.98-4.19,4.34-4.19.74,0,1.53.16,1.85.38v2.36h-1.5c-.93,0-1.66.7-1.66,1.82v5.4ZM286.18,70.14c0-1.02.83-1.82,1.82-1.82s1.82.8,1.82,1.82c0,.96-.83,1.79-1.82,1.79s-1.82-.83-1.82-1.79ZM286.5,74.19h3v12.78h-3v-12.78Z"/>
      <path class="cls-3" d="M292.99,80.58c0-3.74,2.91-6.65,6.87-6.65,3.39,0,5.94,2.08,6.65,5.02h-3.16c-.61-1.31-1.92-2.21-3.48-2.21-2.14,0-3.83,1.66-3.83,3.83s1.69,3.83,3.83,3.83c1.57,0,2.88-.89,3.48-2.2h3.16c-.7,2.94-3.26,5.02-6.65,5.02-3.96,0-6.87-2.91-6.87-6.65Z"/>
      <path class="cls-3" d="M309.19,70.14c0-1.02.83-1.82,1.82-1.82s1.82.8,1.82,1.82c0,.96-.83,1.79-1.82,1.79s-1.82-.83-1.82-1.79ZM309.51,74.19h3v12.78h-3v-12.78Z"/>
      <path class="cls-3" d="M329.54,81.06h-10.48c.16,2.14,1.66,3.64,3.8,3.64,1.63,0,2.91-.86,3.45-2.21h3.04c-.74,2.78-3.2,4.73-6.49,4.73-3.96,0-6.87-2.81-6.87-6.65s2.94-6.65,6.84-6.65,6.68,2.75,6.74,6.58l-.03.54ZM319.32,78.89h6.93c-.54-1.47-1.73-2.4-3.39-2.4s-2.97.96-3.55,2.4Z"/>
      <path class="cls-3" d="M343.79,78.86v8.12h-3v-7.8c0-1.37-1.05-2.43-2.46-2.43s-2.49,1.05-2.49,2.43v7.8h-3.04v-12.78h3.04v1.21c.86-.93,2.01-1.47,3.29-1.47,2.49,0,4.67,2.14,4.67,4.92Z"/>
      <path class="cls-3" d="M351.33,76.75v5.91c0,1.12.74,1.82,1.69,1.82h1.47v2.33c-.32.22-1.12.42-1.85.42-2.33,0-4.35-1.85-4.35-4.22v-6.26h-2.11v-2.56h2.11v-5.24h3.04v5.24h3.23v2.56h-3.23Z"/>
    </g>
  </g>
</svg>