<?xml version="1.0" encoding="UTF-8"?>
<svg id="Layer_2" data-name="Layer 2" xmlns="http://www.w3.org/2000/svg" viewBox="0 0 168.18 44">
  <defs>
    <style>
      .cls-1 {
        fill: #9bdef9;
      }

      .cls-1, .cls-2, .cls-3, .cls-4, .cls-5, .cls-6, .cls-7, .cls-8, .cls-9, .cls-10, .cls-11 {
        stroke-width: 0px;
      }

      .cls-2 {
        fill: #0082b3;
      }

      .cls-3 {
        fill: #01577a;
      }

      .cls-4 {
        fill: #6e759d;
      }

      .cls-5 {
        fill: #022c3c;
      }

      .cls-6 {
        fill: #00adef;
      }

      .cls-7 {
        fill: #34beef;
      }

      .cls-8 {
        fill: #868686;
      }

      .cls-9 {
        fill: #f25c5c;
      }

      .cls-10 {
        fill: #66cef3;
      }

      .cls-11 {
        fill: #2a2a2a;
      }
    </style>
  </defs>
  <g id="Layer_1-2" data-name="Layer 1">
    <path class="cls-4" d="M42.89,23.28l-9.95,9.95-11.23-11.23,11.23-11.23,9.95,9.95c.71.71.71,1.86,0,2.56Z"/>
    <path class="cls-5" d="M32.94,10.77l-11.23,11.23-11.23-11.23L20.43.82c.71-.71,1.86-.71,2.56,0l9.95,9.95Z"/>
    <path class="cls-3" d="M21.71,22l-11.23,11.23L.53,23.28c-.71-.71-.71-1.86,0-2.56l9.95-9.95,11.23,11.23Z"/>
    <path class="cls-2" d="M32.94,33.23l-9.95,9.95c-.71.71-1.86.71-2.56,0l-9.95-9.95,11.23-11.23,11.23,11.23Z"/>
    <g>
      <path class="cls-10" d="M65.35,23.28l-9.95,9.95-11.23-11.23,11.23-11.23,9.95,9.95c.71.71.71,1.86,0,2.56Z"/>
      <path class="cls-7" d="M55.4,10.77l-11.23,11.23-11.23-11.23L42.88.82c.71-.71,1.86-.71,2.56,0l9.95,9.95Z"/>
      <rect class="cls-6" x="24.99" y="14.06" width="15.88" height="15.88" transform="translate(-5.91 29.73) rotate(-45)"/>
      <path class="cls-1" d="M55.4,33.23l-9.95,9.95c-.71.71-1.86.71-2.56,0l-9.95-9.95,11.23-11.23,11.23,11.23Z"/>
    </g>
    <rect class="cls-11" x="76.66" width=".33" height="44"/>
    <path class="cls-6" d="M135.96,10c0-.9.74-1.61,1.61-1.61s1.61.71,1.61,1.61-.74,1.61-1.61,1.61-1.61-.74-1.61-1.61Z"/>
    <rect class="cls-6" x="152.7" y="13.16" width="2.92" height="9.2"/>
    <polygon class="cls-9" points="156.32 8.57 156.32 10.26 155 10.26 155 11.57 153.32 11.57 153.32 10.26 152 10.26 152 8.57 153.32 8.57 153.32 7.26 155 7.26 155 8.57 156.32 8.57"/>
    <path class="cls-8" d="M83.51,30.44v1.61h2.07v.87h-2.07v1.61h2.39v.86h-3.34v-5.82h3.34v.86h-2.39Z"/>
    <path class="cls-8" d="M89.14,32.29h-.98v3.11h-.92v-3.11h-.65v-.78h.65v-1.76c0-.71.6-1.27,1.32-1.27.22,0,.47.05.56.12v.72h-.46c-.28,0-.5.21-.5.55v1.64h.98v.78Z"/>
    <path class="cls-8" d="M90.95,31.52h.98v.78h-.98v3.11h-.92v-3.11h-.65v-.78h.65v-1.76c0-.71.6-1.27,1.32-1.27.22,0,.47.05.56.12v.72h-.46c-.28,0-.5.21-.5.55v1.64ZM92.56,30.28c0-.31.25-.55.55-.55s.55.24.55.55c0,.29-.25.54-.55.54s-.55-.25-.55-.54ZM92.65,31.52h.91v3.88h-.91v-3.88Z"/>
    <path class="cls-8" d="M94.62,33.46c0-1.14.88-2.02,2.09-2.02,1.03,0,1.8.63,2.02,1.52h-.96c-.18-.4-.58-.67-1.06-.67-.65,0-1.16.5-1.16,1.16s.51,1.16,1.16,1.16c.48,0,.87-.27,1.06-.67h.96c-.21.89-.99,1.52-2.02,1.52-1.2,0-2.09-.88-2.09-2.02Z"/>
    <path class="cls-8" d="M99.54,30.28c0-.31.25-.55.55-.55s.55.24.55.55c0,.29-.25.54-.55.54s-.55-.25-.55-.54ZM99.64,31.52h.91v3.88h-.91v-3.88Z"/>
    <path class="cls-8" d="M105.72,33.6h-3.18c.05.65.5,1.11,1.15,1.11.49,0,.88-.26,1.05-.67h.92c-.22.84-.97,1.44-1.97,1.44-1.2,0-2.09-.85-2.09-2.02s.89-2.02,2.08-2.02,2.03.83,2.05,2v.16ZM102.62,32.94h2.11c-.16-.45-.52-.73-1.03-.73s-.9.29-1.08.73Z"/>
    <path class="cls-8" d="M110.05,32.93v2.46h-.91v-2.37c0-.42-.32-.74-.75-.74s-.76.32-.76.74v2.37h-.92v-3.88h.92v.37c.26-.28.61-.45,1-.45.76,0,1.42.65,1.42,1.49Z"/>
    <path class="cls-8" d="M112.34,32.29v1.8c0,.34.22.55.51.55h.45v.71c-.1.07-.34.13-.56.13-.71,0-1.32-.56-1.32-1.28v-1.9h-.64v-.78h.64v-1.59h.92v1.59h.98v.78h-.98Z"/>
    <g>
      <path class="cls-5" d="M93.93,17.88c-.04-.39-.13-.78-.26-1.16-.13-.39-.32-.72-.58-1.02-.26-.29-.62-.49-1.06-.6.34-.16.61-.38.8-.66.18-.28.31-.58.39-.9.07-.33.11-.64.11-.93,0-.78-.19-1.46-.55-2.04-.36-.58-.85-1.03-1.47-1.34-.62-.32-1.32-.48-2.08-.48h-5.3v14h5.84c.77,0,1.48-.17,2.12-.51.64-.35,1.15-.81,1.53-1.38.38-.58.57-1.22.57-1.93,0-.31-.02-.66-.06-1.05ZM86.93,11.31h1.94c.4,0,.74.11,1.03.33.28.22.43.54.43.95s-.15.74-.43,1.01c-.29.27-.63.4-1.03.4h-1.94v-2.69ZM91.07,19.29c-.17.29-.4.51-.68.68-.28.16-.6.24-.94.24h-2.52v-3.71h2.52c.34,0,.66.09.94.26.28.18.51.4.68.68.17.27.26.56.26.87,0,.37-.09.69-.26.98Z"/>
      <path class="cls-5" d="M104.64,16.43c-.2-.74-.52-1.42-.98-2.01-.46-.6-1.02-1.07-1.68-1.42-.66-.35-1.39-.53-2.19-.53-.69,0-1.34.14-1.94.41-.61.27-1.14.65-1.6,1.14-.46.48-.81,1.04-1.07,1.68-.26.63-.39,1.32-.39,2.04,0,.97.22,1.85.67,2.65.45.8,1.05,1.44,1.81,1.91.76.47,1.6.71,2.52.71,1,0,1.9-.28,2.71-.84.8-.57,1.41-1.29,1.82-2.18l-3.06-.71c-.19.23-.41.41-.66.54-.25.14-.52.2-.81.19-.31-.01-.58-.07-.81-.18-.23-.11-.42-.26-.58-.45-.16-.19-.28-.4-.37-.64h6.67c.15-.79.13-1.56-.06-2.31ZM97.92,16.54c.1-.29.24-.54.42-.76.18-.22.4-.39.65-.52s.52-.19.8-.19.55.06.8.19.47.3.66.52c.18.22.32.47.42.76h-3.75Z"/>
      <path class="cls-5" d="M106.09,7.75v15h3V7.75h-3Z"/>
      <path class="cls-5" d="M111.49,7.75v15h3V7.75h-3Z"/>
      <path class="cls-6" d="M124.94,19.65c-.49.24-1.01.36-1.57.36s-1.04-.11-1.51-.33c-.47-.23-.88-.53-1.24-.92-.36-.39-.63-.84-.83-1.36-.2-.51-.3-1.06-.3-1.65s.1-1.15.3-1.66.47-.96.83-1.35.77-.7,1.24-.92c.47-.22.97-.33,1.51-.33s1.08.12,1.57.36c.48.24.9.56,1.25.96l2.68-1.44c-.63-.87-1.42-1.57-2.37-2.09-.96-.53-2-.79-3.13-.79-.95,0-1.84.19-2.67.57-.84.37-1.57.89-2.2,1.56-.63.66-1.12,1.43-1.48,2.31-.36.87-.53,1.82-.53,2.82s.17,1.94.53,2.82c.36.87.85,1.64,1.48,2.31.63.67,1.36,1.19,2.2,1.57.83.37,1.72.56,2.67.56,1.13,0,2.17-.26,3.13-.79.95-.53,1.74-1.22,2.37-2.09l-2.68-1.46c-.35.41-.77.73-1.25.98Z"/>
      <path class="cls-6" d="M130.67,7.75v15h3V7.75h-3Z"/>
      <path class="cls-6" d="M136.07,12.75v10h3v-10h-3Z"/>
      <path class="cls-6" d="M150.23,14.4c-.35-.59-.82-1.05-1.4-1.4-.59-.35-1.24-.53-1.96-.53-.48,0-.93.08-1.35.24-.43.16-.81.38-1.14.67v-.63h-3.01v10h3.01v-5.55c0-.31.07-.6.22-.85.15-.26.35-.46.61-.61.26-.15.54-.23.86-.23s.59.08.85.23c.25.15.45.35.61.61.15.25.23.54.23.85v5.55h3v-6.39c0-.72-.18-1.37-.53-1.96Z"/>
      <rect class="cls-6" x="152.76" y="12.75" width="3" height="10"/>
      <path class="cls-6" d="M164.52,17.73l3.62-4.98h-3.7l-1.79,2.42-1.75-2.42h-3.71l3.63,4.98-3.67,5.02h3.71l1.79-2.48,1.83,2.48h3.7l-3.66-5.02Z"/>
    </g>
  </g>
</svg>