<svg id="Layer_1" data-name="Layer 1" xmlns="http://www.w3.org/2000/svg" viewBox="0 0 454.37 135.22"><defs><style>.cls-1{fill:#6f769e;}.cls-2{fill:#0b293b;}.cls-3{fill:#085778;}.cls-4{fill:#0983b4;}.cls-5{fill:#6cc9f0;}.cls-6{fill:#39bdef;}.cls-7{fill:#28ace3;}.cls-8{fill:#95d5f0;}.cls-9{fill:#343434;}.cls-10{fill:#eb5d5d;}.cls-11{fill:#72716f;}</style></defs><path class="cls-1" d="M131.82,71.55l-30.58,30.58L66.73,67.61l34.51-34.52,30.58,30.58A5.58,5.58,0,0,1,131.82,71.55Z"/><path class="cls-2" d="M101.24,33.09,66.73,67.61,32.21,33.09,62.79,2.52a5.56,5.56,0,0,1,7.88,0Z"/><path class="cls-3" d="M66.73,67.61,32.21,102.13,1.63,71.55a5.57,5.57,0,0,1,0-7.88L32.21,33.09Z"/><path class="cls-4" d="M101.24,102.13,70.67,132.7a5.56,5.56,0,0,1-7.88,0L32.21,102.13,66.73,67.61Z"/><path class="cls-5" d="M200.83,71.55l-30.58,30.58L135.73,67.61l34.52-34.52,30.58,30.58A5.58,5.58,0,0,1,200.83,71.55Z"/><path class="cls-6" d="M170.25,33.09,135.73,67.61,101.21,33.09,131.79,2.52a5.56,5.56,0,0,1,7.88,0Z"/><path class="cls-7" d="M135.73,67.61l-34.52,34.52L70.64,71.55a5.56,5.56,0,0,1,0-7.88l30.57-30.58Z"/><path class="cls-8" d="M170.25,102.13,139.67,132.7a5.56,5.56,0,0,1-7.88,0l-30.58-30.57,34.52-34.52Z"/><rect class="cls-9" x="225.74" width="1.02" height="135.22"/><path class="cls-9" d="M275.31,45.15c0,5.67-4.13,8.56-9.39,8.56H251v-31h13.73c5.32,0,9.55,3.1,9.55,8.73,0,3.25-1.34,5.31-3.51,6.5A7.24,7.24,0,0,1,275.31,45.15ZM263.75,29.61H258.9v5.47h4.85a2.77,2.77,0,0,0,2.63-2.74A2.73,2.73,0,0,0,263.75,29.61Zm3.66,14.5a2.73,2.73,0,0,0-2.68-2.73H258.9v5.47h5.83A2.71,2.71,0,0,0,267.41,44.11Z"/><path class="cls-9" d="M300.65,43.34v1.29H285.58c.21,2.68,1.29,4.13,4,4.13,2,0,3.15-.78,3.51-2.12h7.28c-.93,4.49-4.7,7.49-10.74,7.49-7.18,0-11.77-4.13-11.77-10.74s4.65-10.79,11.56-10.79S300.71,36.73,300.65,43.34ZM286,40.4h7c-.46-1.4-1.49-2.17-3.35-2.17C287.59,38.23,286.51,39,286,40.4Z"/><path class="cls-9" d="M304.89,19.18h7.64V53.71h-7.64Z"/><path class="cls-9" d="M318.2,19.18h7.64V53.71H318.2Z"/><path class="cls-7" d="M330.44,38.23a15.89,15.89,0,0,1,30-7.23l-6.82,3.46a8.24,8.24,0,0,0-15.53,3.77A8.25,8.25,0,0,0,353.66,42l6.82,3.46a15.89,15.89,0,0,1-30-7.23Z"/><path class="cls-7" d="M364.56,19.18h7.64V53.71h-7.64Z"/><path class="cls-7" d="M377.61,25.63a4.08,4.08,0,0,1,8.16,0,4.08,4.08,0,0,1-8.16,0Zm.26,7.44h7.64V53.71h-7.64Z"/><path class="cls-7" d="M412.46,40.65V53.71h-7.64V42.15A2.71,2.71,0,0,0,402,39.31a2.93,2.93,0,0,0-3.1,2.84V53.71h-7.64V33.07h7.64V36a7.7,7.7,0,0,1,6.25-3.36C409.26,32.65,412.46,36.06,412.46,40.65Z"/><path class="cls-7" d="M417.62,33.07h7.64V53.71h-7.64Z"/><polygon class="cls-10" points="428.32 19.55 425.26 19.55 425.26 16.48 417.62 16.48 417.62 19.55 414.56 19.55 414.56 27.19 417.62 27.19 417.62 30.25 425.26 30.25 425.26 27.19 428.32 27.19 428.32 19.55"/><path class="cls-7" d="M445.6,43.44l8.77,10.27h-9.19l-4.13-4.9-4.18,4.9h-9.19l8.78-10.32-8.78-10.32h9.09L441,38l4.23-5h9.14Z"/><path class="cls-11" d="M256.4,70.65V76h6.8v2.88h-6.8v5.3h7.86V87h-11V67.8h11v2.85Z"/><path class="cls-11" d="M274.93,76.75H271.7V87h-3V76.75h-2.14V74.19h2.14V68.41A4.28,4.28,0,0,1,273,64.22a3.85,3.85,0,0,1,1.86.39V67h-1.5a1.68,1.68,0,0,0-1.67,1.82v5.4h3.23Z"/><path class="cls-11" d="M280.88,74.19h3.22v2.56h-3.22V87h-3V76.75H275.7V74.19h2.14V68.41a4.28,4.28,0,0,1,4.35-4.19,3.83,3.83,0,0,1,1.85.39V67h-1.5a1.68,1.68,0,0,0-1.66,1.82Zm5.3-4A1.82,1.82,0,1,1,288,71.92,1.82,1.82,0,0,1,286.18,70.14Zm.32,4h3V87h-3Z"/><path class="cls-11" d="M293,80.58A6.89,6.89,0,0,1,306.5,79h-3.16a3.84,3.84,0,1,0,0,3.25h3.16A6.89,6.89,0,0,1,293,80.58Z"/><path class="cls-11" d="M309.19,70.14A1.82,1.82,0,1,1,311,71.92,1.82,1.82,0,0,1,309.19,70.14Zm.32,4h3V87h-3Z"/><path class="cls-11" d="M329.54,81.06H319.06a3.72,3.72,0,0,0,3.8,3.65,3.58,3.58,0,0,0,3.45-2.21h3a6.41,6.41,0,0,1-6.49,4.73,6.65,6.65,0,1,1,0-13.29,6.49,6.49,0,0,1,6.74,6.58Zm-10.22-2.17h6.93a3.45,3.45,0,0,0-3.39-2.4A3.66,3.66,0,0,0,319.32,78.89Z"/><path class="cls-11" d="M343.79,78.86V87h-3V79.18a2.39,2.39,0,0,0-2.46-2.43,2.42,2.42,0,0,0-2.49,2.43V87h-3V74.19h3v1.22a4.43,4.43,0,0,1,3.29-1.47A4.81,4.81,0,0,1,343.79,78.86Z"/><path class="cls-11" d="M351.33,76.75v5.91a1.68,1.68,0,0,0,1.7,1.82h1.47v2.33a3.8,3.8,0,0,1-1.85.42A4.3,4.3,0,0,1,348.3,83V76.75h-2.11V74.19h2.11V69h3v5.24h3.23v2.56Z"/></svg>