<svg xmlns="http://www.w3.org/2000/svg" xmlns:xlink="http://www.w3.org/1999/xlink" width="431" zoomAndPan="magnify" viewBox="0 0 323.25 86.999996" height="116" preserveAspectRatio="xMidYMid meet" version="1.0"><defs><g/><clipPath id="5fe52232c6"><path d="M 278.460938 25.433594 L 283.933594 25.433594 L 283.933594 42.019531 L 278.460938 42.019531 Z M 278.460938 25.433594 " clip-rule="nonzero"/></clipPath><clipPath id="6a503b11e1"><path d="M 273.191406 7.839844 L 288.90625 7.839844 L 288.90625 23.554688 L 273.191406 23.554688 Z M 273.191406 7.839844 " clip-rule="nonzero"/></clipPath></defs><path fill="#00aeef" d="M 65.09375 67.917969 L 40.773438 43.484375 L 47.789062 36.4375 L 65.09375 19.054688 L 82.398438 36.4375 C 82.398438 36.4375 82.398438 36.4375 82.402344 36.441406 L 89.414062 43.484375 Z M 65.09375 67.917969 " fill-opacity="1" fill-rule="nonzero"/><path fill="#33bef2" d="M 65.09375 19.054688 L 80.039062 4.039062 C 83.914062 0.144531 90.195312 0.144531 94.070312 4.039062 L 111.371094 21.421875 L 89.410156 43.484375 L 82.398438 36.441406 C 82.398438 36.441406 82.398438 36.4375 82.394531 36.4375 Z M 65.09375 19.054688 " fill-opacity="1" fill-rule="nonzero"/><path fill="#66cef5" d="M 89.410156 43.484375 L 111.371094 21.421875 L 126.316406 36.4375 C 130.191406 40.328125 130.191406 46.640625 126.316406 50.53125 L 111.371094 65.546875 Z M 89.410156 43.484375 " fill-opacity="1" fill-rule="nonzero"/><path fill="#99dff9" d="M 89.410156 43.484375 L 111.371094 65.550781 L 94.066406 82.933594 C 90.191406 86.824219 83.910156 86.824219 80.035156 82.933594 L 65.089844 67.917969 Z M 89.410156 43.484375 " fill-opacity="1" fill-rule="nonzero"/><path fill="#002c3c" d="M 40.773438 43.484375 L 18.8125 21.421875 L 36.113281 4.039062 C 39.988281 0.144531 46.269531 0.144531 50.144531 4.039062 L 64.40625 18.367188 L 65.089844 19.054688 L 47.789062 36.4375 C 47.789062 36.4375 47.789062 36.4375 47.785156 36.4375 Z M 40.773438 43.484375 " fill-opacity="1" fill-rule="nonzero"/><path fill="#005778" d="M 40.773438 43.484375 L 18.8125 65.550781 L 3.867188 50.535156 C -0.0078125 46.644531 -0.0117188 40.332031 3.867188 36.4375 L 18.8125 21.425781 Z M 40.773438 43.484375 " fill-opacity="1" fill-rule="nonzero"/><path fill="#0083b3" d="M 36.113281 82.929688 L 18.8125 65.546875 L 40.773438 43.484375 L 65.09375 67.917969 L 50.148438 82.929688 C 46.269531 86.824219 39.992188 86.824219 36.113281 82.929688 Z M 36.113281 82.929688 " fill-opacity="1" fill-rule="nonzero"/><path stroke-linecap="butt" transform="matrix(0, -0.748264, 0.748264, 0, 140.669805, 73.106983)" fill="none" stroke-linejoin="miter" d="M 0.00202428 1.501026 L 79.399359 1.501026 " stroke="#000000" stroke-width="3" stroke-opacity="1" stroke-miterlimit="4"/><g fill="#000000" fill-opacity="1"><g transform="translate(149.74132, 41.450112)"><g><path d="M 17.53125 -12.6875 C 18.707031 -12.25 19.65625 -11.546875 20.375 -10.578125 C 21.101562 -9.617188 21.46875 -8.375 21.46875 -6.84375 C 21.46875 -5.375 21.140625 -4.128906 20.484375 -3.109375 C 19.828125 -2.097656 18.9375 -1.328125 17.8125 -0.796875 C 16.6875 -0.265625 15.425781 0 14.03125 0 L 2.46875 0 L 2.46875 -25.0625 L 13.0625 -25.0625 C 14.488281 -25.0625 15.769531 -24.785156 16.90625 -24.234375 C 18.050781 -23.691406 18.957031 -22.898438 19.625 -21.859375 C 20.289062 -20.816406 20.625 -19.554688 20.625 -18.078125 C 20.625 -16.773438 20.34375 -15.675781 19.78125 -14.78125 C 19.226562 -13.894531 18.476562 -13.195312 17.53125 -12.6875 Z M 15.109375 -17.5 C 15.109375 -18.25 14.84375 -18.878906 14.3125 -19.390625 C 13.789062 -19.910156 13.15625 -20.171875 12.40625 -20.171875 L 7.96875 -20.171875 L 7.96875 -14.78125 L 12.40625 -14.78125 C 13.15625 -14.78125 13.789062 -15.050781 14.3125 -15.59375 C 14.84375 -16.132812 15.109375 -16.769531 15.109375 -17.5 Z M 13.234375 -4.890625 C 14.015625 -4.890625 14.660156 -5.144531 15.171875 -5.65625 C 15.691406 -6.175781 15.953125 -6.8125 15.953125 -7.5625 C 15.953125 -8.28125 15.691406 -8.910156 15.171875 -9.453125 C 14.660156 -9.992188 14.015625 -10.265625 13.234375 -10.265625 L 7.96875 -10.265625 L 7.96875 -4.890625 Z M 13.234375 -4.890625 "/></g></g></g><g fill="#000000" fill-opacity="1"><g transform="translate(171.74532, 41.450112)"><g><path d="M 19.453125 -8.390625 L 19.453125 -7.46875 L 6.6875 -7.46875 C 6.789062 -6.269531 7.160156 -5.332031 7.796875 -4.65625 C 8.441406 -3.976562 9.363281 -3.640625 10.5625 -3.640625 C 12.40625 -3.640625 13.578125 -4.347656 14.078125 -5.765625 L 19.203125 -5.765625 C 18.785156 -3.953125 17.832031 -2.484375 16.34375 -1.359375 C 14.851562 -0.234375 12.953125 0.328125 10.640625 0.328125 C 8.773438 0.328125 7.140625 -0.03125 5.734375 -0.75 C 4.335938 -1.476562 3.25 -2.492188 2.46875 -3.796875 C 1.6875 -5.109375 1.296875 -6.628906 1.296875 -8.359375 C 1.296875 -10.109375 1.6875 -11.632812 2.46875 -12.9375 C 3.25 -14.25 4.332031 -15.265625 5.71875 -15.984375 C 7.113281 -16.710938 8.703125 -17.078125 10.484375 -17.078125 C 12.296875 -17.078125 13.867188 -16.710938 15.203125 -15.984375 C 16.535156 -15.265625 17.578125 -14.257812 18.328125 -12.96875 C 19.078125 -11.675781 19.453125 -10.148438 19.453125 -8.390625 Z M 10.5625 -12.984375 C 9.613281 -12.984375 8.851562 -12.78125 8.28125 -12.375 C 7.71875 -11.976562 7.296875 -11.414062 7.015625 -10.6875 L 13.953125 -10.6875 C 13.671875 -11.414062 13.257812 -11.976562 12.71875 -12.375 C 12.175781 -12.78125 11.457031 -12.984375 10.5625 -12.984375 Z M 10.5625 -12.984375 "/></g></g></g><g fill="#000000" fill-opacity="1"><g transform="translate(191.786896, 41.450112)"><g><path d="M 2.46875 0 L 2.46875 -28.609375 L 7.8125 -28.609375 L 7.8125 0 Z M 2.46875 0 "/></g></g></g><g fill="#000000" fill-opacity="1"><g transform="translate(201.390057, 41.450112)"><g><path d="M 2.46875 0 L 2.46875 -28.609375 L 7.8125 -28.609375 L 7.8125 0 Z M 2.46875 0 "/></g></g></g><g fill="#38b6ff" fill-opacity="1"><g transform="translate(210.993732, 41.450112)"><g><path d="M 14.40625 0.328125 C 12.625 0.328125 10.957031 -0.00390625 9.40625 -0.671875 C 7.863281 -1.335938 6.5 -2.257812 5.3125 -3.4375 C 4.132812 -4.625 3.210938 -5.988281 2.546875 -7.53125 C 1.878906 -9.082031 1.546875 -10.75 1.546875 -12.53125 C 1.546875 -14.3125 1.878906 -15.972656 2.546875 -17.515625 C 3.210938 -19.054688 4.132812 -20.421875 5.3125 -21.609375 C 6.5 -22.796875 7.863281 -23.722656 9.40625 -24.390625 C 10.957031 -25.054688 12.625 -25.390625 14.40625 -25.390625 C 16.882812 -25.390625 19.140625 -24.753906 21.171875 -23.484375 C 23.203125 -22.222656 24.75 -20.5625 25.8125 -18.5 L 21.046875 -16.03125 C 20.429688 -17.226562 19.539062 -18.1875 18.375 -18.90625 C 17.207031 -19.632812 15.882812 -20 14.40625 -20 C 13.007812 -20 11.75 -19.671875 10.625 -19.015625 C 9.5 -18.367188 8.609375 -17.476562 7.953125 -16.34375 C 7.296875 -15.21875 6.96875 -13.945312 6.96875 -12.53125 C 6.96875 -11.101562 7.296875 -9.828125 7.953125 -8.703125 C 8.609375 -7.578125 9.5 -6.6875 10.625 -6.03125 C 11.75 -5.375 13.007812 -5.046875 14.40625 -5.046875 C 15.882812 -5.046875 17.207031 -5.40625 18.375 -6.125 C 19.539062 -6.851562 20.429688 -7.816406 21.046875 -9.015625 L 25.8125 -6.5625 C 24.75 -4.519531 23.203125 -2.859375 21.171875 -1.578125 C 19.140625 -0.304688 16.882812 0.328125 14.40625 0.328125 Z M 14.40625 0.328125 "/></g></g></g><g fill="#38b6ff" fill-opacity="1"><g transform="translate(237.214846, 41.450112)"><g><path d="M 2.46875 0 L 2.46875 -28.609375 L 7.8125 -28.609375 L 7.8125 0 Z M 2.46875 0 "/></g></g></g><g fill="#38b6ff" fill-opacity="1"><g transform="translate(246.818006, 41.450112)"><g><path d="M 5.21875 -19.5 C 4.4375 -19.5 3.753906 -19.789062 3.171875 -20.375 C 2.585938 -20.957031 2.296875 -21.640625 2.296875 -22.421875 C 2.296875 -23.234375 2.585938 -23.921875 3.171875 -24.484375 C 3.753906 -25.054688 4.4375 -25.34375 5.21875 -25.34375 C 6.03125 -25.34375 6.71875 -25.054688 7.28125 -24.484375 C 7.851562 -23.921875 8.140625 -23.234375 8.140625 -22.421875 C 8.140625 -21.640625 7.851562 -20.957031 7.28125 -20.375 C 6.71875 -19.789062 6.03125 -19.5 5.21875 -19.5 Z M 2.546875 0 L 2.546875 -16.703125 L 7.84375 -16.703125 L 7.84375 0 Z M 2.546875 0 "/></g></g></g><g fill="#38b6ff" fill-opacity="1"><g transform="translate(256.588184, 41.450112)"><g><path d="M 12.5625 -17.03125 C 13.675781 -17.03125 14.675781 -16.742188 15.5625 -16.171875 C 16.457031 -15.609375 17.175781 -14.835938 17.71875 -13.859375 C 18.269531 -12.890625 18.546875 -11.789062 18.546875 -10.5625 L 18.546875 0 L 13.234375 0 L 13.234375 -9.6875 C 13.234375 -10.4375 12.988281 -11.0625 12.5 -11.5625 C 12.019531 -12.0625 11.390625 -12.3125 10.609375 -12.3125 C 9.828125 -12.3125 9.164062 -12.0625 8.625 -11.5625 C 8.082031 -11.0625 7.8125 -10.4375 7.8125 -9.6875 L 7.8125 0 L 2.46875 0 L 2.46875 -16.703125 L 7.8125 -16.703125 L 7.8125 -14.65625 C 8.394531 -15.382812 9.097656 -15.960938 9.921875 -16.390625 C 10.742188 -16.816406 11.625 -17.03125 12.5625 -17.03125 Z M 12.5625 -17.03125 "/></g></g></g><g fill="#38b6ff" fill-opacity="1"><g transform="translate(276.588006, 41.450112)"><g/></g></g><g fill="#38b6ff" fill-opacity="1"><g transform="translate(285.940654, 41.450112)"><g><path d="M 20.296875 -16.703125 L 13.234375 -8.3125 L 20.296875 0 L 13.90625 0 L 10.0625 -4.546875 L 6.21875 0 L -0.203125 0 L 6.84375 -8.359375 L -0.203125 -16.703125 L 6.140625 -16.703125 L 10.015625 -12.109375 L 13.90625 -16.703125 Z M 20.296875 -16.703125 "/></g></g></g><g clip-path="url(#5fe52232c6)"><path fill="#38b6ff" d="M 278.460938 25.433594 L 283.933594 25.433594 L 283.933594 42.011719 L 278.460938 42.011719 Z M 278.460938 25.433594 " fill-opacity="1" fill-rule="nonzero"/></g><g clip-path="url(#6a503b11e1)"><path fill="#ff0000" d="M 289.195312 13.175781 L 289.195312 18.511719 L 283.863281 18.511719 L 283.863281 23.847656 L 278.527344 23.847656 L 278.527344 18.511719 L 273.191406 18.511719 L 273.191406 13.175781 L 278.527344 13.175781 L 278.527344 7.839844 L 283.863281 7.839844 L 283.863281 13.175781 Z M 289.195312 13.175781 " fill-opacity="1" fill-rule="nonzero"/></g><g fill="#a6a6a6" fill-opacity="1"><g transform="translate(149.74132, 66.239602)"><g><path d="M 1.84375 0 C 1.84375 0 1.84375 -6.414062 1.84375 -19.25 C 1.84375 -19.25 5.289062 -19.25 12.1875 -19.25 C 12.1875 -19.25 12.1875 -18.109375 12.1875 -15.828125 C 12.1875 -15.828125 9.929688 -15.828125 5.421875 -15.828125 C 5.421875 -15.828125 5.421875 -14.320312 5.421875 -11.3125 C 5.421875 -11.3125 7.582031 -11.3125 11.90625 -11.3125 C 11.90625 -11.3125 11.90625 -10.171875 11.90625 -7.890625 C 11.90625 -7.890625 9.742188 -7.890625 5.421875 -7.890625 C 5.421875 -7.890625 5.421875 -6.394531 5.421875 -3.40625 C 5.421875 -3.40625 7.675781 -3.40625 12.1875 -3.40625 C 12.1875 -3.40625 12.1875 -2.269531 12.1875 0 C 12.1875 0 8.738281 0 1.84375 0 Z M 1.84375 0 "/></g></g></g><g fill="#a6a6a6" fill-opacity="1"><g transform="translate(162.867872, 66.239602)"><g><path d="M 1.765625 0 C 1.765625 0 1.765625 -3.757812 1.765625 -11.28125 C 1.765625 -11.28125 1.347656 -11.28125 0.515625 -11.28125 C 0.515625 -11.28125 0.515625 -12.242188 0.515625 -14.171875 C 0.515625 -14.171875 0.929688 -14.171875 1.765625 -14.171875 C 1.847656 -15.085938 1.976562 -15.800781 2.15625 -16.3125 C 2.332031 -16.820312 2.613281 -17.289062 3 -17.71875 C 3.894531 -18.738281 5.070312 -19.25 6.53125 -19.25 C 6.832031 -19.25 7.125 -19.226562 7.40625 -19.1875 L 7.40625 -15.90625 C 7.40625 -15.90625 7.28125 -15.90625 7.03125 -15.90625 C 6.375 -15.90625 5.914062 -15.773438 5.65625 -15.515625 C 5.394531 -15.265625 5.253906 -14.816406 5.234375 -14.171875 L 7.1875 -14.171875 C 7.1875 -14.171875 7.1875 -13.207031 7.1875 -11.28125 C 7.1875 -11.28125 6.535156 -11.28125 5.234375 -11.28125 C 5.234375 -11.28125 5.234375 -7.519531 5.234375 0 C 5.234375 0 4.078125 0 1.765625 0 Z M 1.765625 0 "/></g></g></g><g fill="#a6a6a6" fill-opacity="1"><g transform="translate(170.003676, 66.239602)"><g><path d="M 1.765625 0 C 1.765625 0 1.765625 -3.757812 1.765625 -11.28125 C 1.765625 -11.28125 1.347656 -11.28125 0.515625 -11.28125 C 0.515625 -11.28125 0.515625 -12.242188 0.515625 -14.171875 C 0.515625 -14.171875 0.929688 -14.171875 1.765625 -14.171875 C 1.847656 -15.085938 1.976562 -15.800781 2.15625 -16.3125 C 2.332031 -16.820312 2.613281 -17.289062 3 -17.71875 C 3.894531 -18.738281 5.070312 -19.25 6.53125 -19.25 C 6.832031 -19.25 7.125 -19.226562 7.40625 -19.1875 L 7.40625 -15.90625 C 7.40625 -15.90625 7.28125 -15.90625 7.03125 -15.90625 C 6.375 -15.90625 5.914062 -15.773438 5.65625 -15.515625 C 5.394531 -15.265625 5.253906 -14.816406 5.234375 -14.171875 L 7.1875 -14.171875 C 7.1875 -14.171875 7.1875 -13.207031 7.1875 -11.28125 C 7.1875 -11.28125 6.535156 -11.28125 5.234375 -11.28125 C 5.234375 -11.28125 5.234375 -7.519531 5.234375 0 C 5.234375 0 4.078125 0 1.765625 0 Z M 1.765625 0 "/></g></g></g><g fill="#a6a6a6" fill-opacity="1"><g transform="translate(177.13948, 66.239602)"><g><path d="M 1.40625 0 C 1.40625 0 1.40625 -4.8125 1.40625 -14.4375 C 1.40625 -14.4375 2.5625 -14.4375 4.875 -14.4375 C 4.875 -14.4375 4.875 -9.625 4.875 0 C 4.875 0 3.71875 0 1.40625 0 Z M 1.40625 -15.984375 C 1.40625 -15.984375 1.40625 -17.070312 1.40625 -19.25 C 1.40625 -19.25 2.5625 -19.25 4.875 -19.25 C 4.875 -19.25 4.875 -18.160156 4.875 -15.984375 C 4.875 -15.984375 3.71875 -15.984375 1.40625 -15.984375 Z M 1.40625 -15.984375 "/></g></g></g><g fill="#a6a6a6" fill-opacity="1"><g transform="translate(182.888889, 66.239602)"><g><path d="M 11.703125 -4.75 C 11.703125 -4.75 13.003906 -4.75 15.609375 -4.75 C 15.003906 -3.125 14.078125 -1.867188 12.828125 -0.984375 C 11.585938 -0.0976562 10.125 0.34375 8.4375 0.34375 C 7.394531 0.34375 6.394531 0.144531 5.4375 -0.25 C 4.476562 -0.65625 3.65625 -1.191406 2.96875 -1.859375 C 2.289062 -2.523438 1.742188 -3.320312 1.328125 -4.25 C 0.921875 -5.1875 0.71875 -6.175781 0.71875 -7.21875 C 0.71875 -8.601562 1.050781 -9.875 1.71875 -11.03125 C 2.394531 -12.1875 3.316406 -13.097656 4.484375 -13.765625 C 5.648438 -14.429688 6.929688 -14.765625 8.328125 -14.765625 C 9.359375 -14.765625 10.34375 -14.578125 11.28125 -14.203125 C 12.21875 -13.835938 13.039062 -13.3125 13.75 -12.625 C 14.207031 -12.175781 14.566406 -11.738281 14.828125 -11.3125 C 15.097656 -10.882812 15.359375 -10.316406 15.609375 -9.609375 L 11.703125 -9.609375 C 11.023438 -10.929688 9.898438 -11.59375 8.328125 -11.59375 C 7.128906 -11.59375 6.144531 -11.1875 5.375 -10.375 C 4.601562 -9.5625 4.21875 -8.515625 4.21875 -7.234375 C 4.21875 -5.972656 4.617188 -4.925781 5.421875 -4.09375 C 6.222656 -3.257812 7.222656 -2.84375 8.421875 -2.84375 C 9.128906 -2.84375 9.742188 -2.992188 10.265625 -3.296875 C 10.785156 -3.597656 11.265625 -4.082031 11.703125 -4.75 Z M 11.703125 -4.75 "/></g></g></g><g fill="#a6a6a6" fill-opacity="1"><g transform="translate(198.648315, 66.239602)"><g><path d="M 1.40625 0 C 1.40625 0 1.40625 -4.8125 1.40625 -14.4375 C 1.40625 -14.4375 2.5625 -14.4375 4.875 -14.4375 C 4.875 -14.4375 4.875 -9.625 4.875 0 C 4.875 0 3.71875 0 1.40625 0 Z M 1.40625 -15.984375 C 1.40625 -15.984375 1.40625 -17.070312 1.40625 -19.25 C 1.40625 -19.25 2.5625 -19.25 4.875 -19.25 C 4.875 -19.25 4.875 -18.160156 4.875 -15.984375 C 4.875 -15.984375 3.71875 -15.984375 1.40625 -15.984375 Z M 1.40625 -15.984375 "/></g></g></g><g fill="#a6a6a6" fill-opacity="1"><g transform="translate(204.397727, 66.239602)"><g><path d="M 15.65625 -5.671875 C 15.65625 -5.671875 11.929688 -5.671875 4.484375 -5.671875 C 4.691406 -4.796875 5.148438 -4.101562 5.859375 -3.59375 C 6.578125 -3.09375 7.445312 -2.84375 8.46875 -2.84375 C 9.175781 -2.84375 9.769531 -2.945312 10.25 -3.15625 C 10.726562 -3.375 11.191406 -3.742188 11.640625 -4.265625 L 15.421875 -4.265625 C 15.210938 -3.617188 14.828125 -2.953125 14.265625 -2.265625 C 12.773438 -0.523438 10.867188 0.34375 8.546875 0.34375 C 7.460938 0.34375 6.4375 0.148438 5.46875 -0.234375 C 4.5 -0.628906 3.671875 -1.160156 2.984375 -1.828125 C 2.296875 -2.492188 1.742188 -3.289062 1.328125 -4.21875 C 0.921875 -5.144531 0.71875 -6.125 0.71875 -7.15625 C 0.71875 -8.550781 1.054688 -9.832031 1.734375 -11 C 2.410156 -12.164062 3.332031 -13.082031 4.5 -13.75 C 5.664062 -14.425781 6.941406 -14.765625 8.328125 -14.765625 C 9.742188 -14.765625 11.019531 -14.429688 12.15625 -13.765625 C 13.289062 -13.097656 14.175781 -12.171875 14.8125 -10.984375 C 15.457031 -9.804688 15.78125 -8.476562 15.78125 -7 C 15.78125 -6.53125 15.738281 -6.085938 15.65625 -5.671875 Z M 4.375 -8.71875 L 12.375 -8.71875 C 12.15625 -9.644531 11.703125 -10.351562 11.015625 -10.84375 C 10.328125 -11.34375 9.445312 -11.59375 8.375 -11.59375 C 7.34375 -11.59375 6.484375 -11.347656 5.796875 -10.859375 C 5.117188 -10.367188 4.644531 -9.65625 4.375 -8.71875 Z M 4.375 -8.71875 "/></g></g></g><g fill="#a6a6a6" fill-opacity="1"><g transform="translate(220.386101, 66.239602)"><g><path d="M 1.40625 0 C 1.40625 0 1.40625 -4.8125 1.40625 -14.4375 C 1.40625 -14.4375 2.472656 -14.4375 4.609375 -14.4375 C 4.609375 -14.4375 4.609375 -13.972656 4.609375 -13.046875 C 5.242188 -13.671875 5.867188 -14.113281 6.484375 -14.375 C 7.109375 -14.632812 7.835938 -14.765625 8.671875 -14.765625 C 10.773438 -14.765625 12.3125 -14.023438 13.28125 -12.546875 C 13.625 -11.992188 13.863281 -11.363281 14 -10.65625 C 14.144531 -9.957031 14.21875 -8.984375 14.21875 -7.734375 L 14.21875 0 L 10.765625 0 C 10.765625 0 10.765625 -2.351562 10.765625 -7.0625 C 10.765625 -8.925781 10.515625 -10.148438 10.015625 -10.734375 C 9.554688 -11.304688 8.882812 -11.59375 8 -11.59375 C 6.8125 -11.59375 5.953125 -11.125 5.421875 -10.1875 C 5.203125 -9.851562 5.054688 -9.441406 4.984375 -8.953125 C 4.910156 -8.460938 4.875 -7.742188 4.875 -6.796875 L 4.875 0 C 4.875 0 3.71875 0 1.40625 0 Z M 1.40625 0 "/></g></g></g><g fill="#a6a6a6" fill-opacity="1"><g transform="translate(235.433254, 66.239602)"><g><path d="M 2.03125 0 C 2.03125 0 2.03125 -3.757812 2.03125 -11.28125 C 2.03125 -11.28125 1.46875 -11.28125 0.34375 -11.28125 C 0.34375 -11.28125 0.34375 -12.332031 0.34375 -14.4375 C 0.34375 -14.4375 0.90625 -14.4375 2.03125 -14.4375 C 2.03125 -14.4375 2.03125 -16.039062 2.03125 -19.25 C 2.03125 -19.25 3.1875 -19.25 5.5 -19.25 C 5.5 -19.25 5.5 -17.644531 5.5 -14.4375 C 5.5 -14.4375 6.191406 -14.4375 7.578125 -14.4375 C 7.578125 -14.4375 7.578125 -13.382812 7.578125 -11.28125 C 7.578125 -11.28125 6.882812 -11.28125 5.5 -11.28125 C 5.5 -11.28125 5.5 -7.519531 5.5 0 C 5.5 0 4.34375 0 2.03125 0 Z M 2.03125 0 "/></g></g></g></svg>