<svg xmlns="http://www.w3.org/2000/svg" xmlns:xlink="http://www.w3.org/1999/xlink" width="500" zoomAndPan="magnify" viewBox="0 0 375 374.999991" height="500" preserveAspectRatio="xMidYMid meet" version="1.0"><defs><g/><clipPath id="02a3a76c9b"><path d="M 311.175781 161.675781 L 316.664062 161.675781 L 316.664062 178.300781 L 311.175781 178.300781 Z M 311.175781 161.675781 " clip-rule="nonzero"/></clipPath><clipPath id="93c3148f2d"><path d="M 302.429688 136.589844 L 325.679688 136.589844 L 325.679688 159.839844 L 302.429688 159.839844 Z M 302.429688 136.589844 " clip-rule="nonzero"/></clipPath><clipPath id="98b5fd8e7a"><path d="M 278 190.128906 L 309 190.128906 L 309 193 L 278 193 Z M 278 190.128906 " clip-rule="nonzero"/></clipPath><clipPath id="7f078193f9"><path d="M 274.738281 194 L 305 194 L 305 197 L 274.738281 197 Z M 274.738281 194 " clip-rule="nonzero"/></clipPath><clipPath id="49d3f5562a"><path d="M 281 198 L 311.488281 198 L 311.488281 200.628906 L 281 200.628906 Z M 281 198 " clip-rule="nonzero"/></clipPath></defs><path fill="#00aeef" d="M 100.757812 202.871094 L 76.382812 178.382812 L 83.410156 171.320312 C 83.410156 171.320312 83.414062 171.316406 83.414062 171.316406 L 100.757812 153.894531 L 118.101562 171.316406 C 118.105469 171.320312 118.105469 171.320312 118.105469 171.324219 L 125.132812 178.382812 Z M 100.757812 202.871094 " fill-opacity="1" fill-rule="nonzero"/><path fill="#33bef2" d="M 100.757812 153.894531 L 115.738281 138.84375 C 119.621094 134.945312 125.917969 134.945312 129.800781 138.84375 L 147.144531 156.269531 L 125.132812 178.382812 L 118.105469 171.324219 C 118.101562 171.324219 118.101562 171.320312 118.097656 171.316406 Z M 100.757812 153.894531 " fill-opacity="1" fill-rule="nonzero"/><path fill="#66cef5" d="M 125.132812 178.382812 L 147.144531 156.269531 L 162.125 171.316406 C 166.007812 175.21875 166.007812 181.546875 162.125 185.445312 L 147.144531 200.496094 Z M 125.132812 178.382812 " fill-opacity="1" fill-rule="nonzero"/><path fill="#99dff9" d="M 125.132812 178.382812 L 147.140625 200.5 L 129.796875 217.921875 C 125.914062 221.824219 119.617188 221.824219 115.734375 217.921875 L 100.753906 202.871094 Z M 125.132812 178.382812 " fill-opacity="1" fill-rule="nonzero"/><path fill="#002c3c" d="M 76.382812 178.382812 L 54.367188 156.269531 L 71.710938 138.84375 C 75.59375 134.945312 81.890625 134.945312 85.773438 138.84375 L 100.070312 153.207031 L 100.753906 153.894531 L 83.410156 171.316406 C 83.410156 171.316406 83.410156 171.320312 83.410156 171.320312 Z M 76.382812 178.382812 " fill-opacity="1" fill-rule="nonzero"/><path fill="#005778" d="M 76.382812 178.382812 L 54.367188 200.5 L 39.386719 185.449219 C 35.503906 181.546875 35.5 175.222656 39.386719 171.320312 L 54.367188 156.269531 Z M 76.382812 178.382812 " fill-opacity="1" fill-rule="nonzero"/><path fill="#0083b3" d="M 71.710938 217.917969 L 54.367188 200.496094 L 76.382812 178.382812 L 100.757812 202.871094 L 85.777344 217.917969 C 81.890625 221.824219 75.597656 221.824219 71.710938 217.917969 Z M 71.710938 217.917969 " fill-opacity="1" fill-rule="nonzero"/><path stroke-linecap="butt" transform="matrix(0, -0.75, 0.75, 0, 173.066477, 209.459737)" fill="none" stroke-linejoin="miter" d="M -0.00160114 1.499906 L 79.399446 1.499906 " stroke="#000000" stroke-width="3" stroke-opacity="1" stroke-miterlimit="4"/><g fill="#000000" fill-opacity="1"><g transform="translate(182.15904, 177.729408)"><g><path d="M 17.578125 -12.71875 C 18.753906 -12.269531 19.703125 -11.566406 20.421875 -10.609375 C 21.148438 -9.648438 21.515625 -8.398438 21.515625 -6.859375 C 21.515625 -5.378906 21.1875 -4.128906 20.53125 -3.109375 C 19.875 -2.097656 18.976562 -1.328125 17.84375 -0.796875 C 16.71875 -0.265625 15.457031 0 14.0625 0 L 2.46875 0 L 2.46875 -25.109375 L 13.09375 -25.109375 C 14.519531 -25.109375 15.804688 -24.835938 16.953125 -24.296875 C 18.097656 -23.753906 19.003906 -22.957031 19.671875 -21.90625 C 20.335938 -20.863281 20.671875 -19.601562 20.671875 -18.125 C 20.671875 -16.8125 20.390625 -15.707031 19.828125 -14.8125 C 19.273438 -13.925781 18.523438 -13.226562 17.578125 -12.71875 Z M 15.15625 -17.53125 C 15.15625 -18.289062 14.890625 -18.925781 14.359375 -19.4375 C 13.828125 -19.957031 13.1875 -20.21875 12.4375 -20.21875 L 8 -20.21875 L 8 -14.8125 L 12.4375 -14.8125 C 13.1875 -14.8125 13.828125 -15.082031 14.359375 -15.625 C 14.890625 -16.175781 15.15625 -16.8125 15.15625 -17.53125 Z M 13.265625 -4.890625 C 14.046875 -4.890625 14.691406 -5.148438 15.203125 -5.671875 C 15.722656 -6.191406 15.984375 -6.828125 15.984375 -7.578125 C 15.984375 -8.304688 15.722656 -8.941406 15.203125 -9.484375 C 14.691406 -10.023438 14.046875 -10.296875 13.265625 -10.296875 L 8 -10.296875 L 8 -4.890625 Z M 13.265625 -4.890625 "/></g></g></g><g fill="#000000" fill-opacity="1"><g transform="translate(204.214092, 177.729408)"><g><path d="M 19.5 -8.40625 L 19.5 -7.484375 L 6.703125 -7.484375 C 6.804688 -6.285156 7.179688 -5.34375 7.828125 -4.65625 C 8.472656 -3.976562 9.394531 -3.640625 10.59375 -3.640625 C 12.4375 -3.640625 13.609375 -4.351562 14.109375 -5.78125 L 19.25 -5.78125 C 18.832031 -3.96875 17.875 -2.492188 16.375 -1.359375 C 14.882812 -0.234375 12.984375 0.328125 10.671875 0.328125 C 8.804688 0.328125 7.164062 -0.03125 5.75 -0.75 C 4.34375 -1.476562 3.25 -2.5 2.46875 -3.8125 C 1.6875 -5.125 1.296875 -6.644531 1.296875 -8.375 C 1.296875 -10.132812 1.6875 -11.664062 2.46875 -12.96875 C 3.25 -14.28125 4.335938 -15.300781 5.734375 -16.03125 C 7.128906 -16.757812 8.71875 -17.125 10.5 -17.125 C 12.3125 -17.125 13.890625 -16.757812 15.234375 -16.03125 C 16.578125 -15.300781 17.625 -14.285156 18.375 -12.984375 C 19.125 -11.691406 19.5 -10.164062 19.5 -8.40625 Z M 10.59375 -13.015625 C 9.644531 -13.015625 8.882812 -12.8125 8.3125 -12.40625 C 7.738281 -12 7.3125 -11.4375 7.03125 -10.71875 L 13.984375 -10.71875 C 13.703125 -11.4375 13.285156 -12 12.734375 -12.40625 C 12.191406 -12.8125 11.476562 -13.015625 10.59375 -13.015625 Z M 10.59375 -13.015625 "/></g></g></g><g fill="#000000" fill-opacity="1"><g transform="translate(224.302168, 177.729408)"><g><path d="M 2.46875 0 L 2.46875 -28.671875 L 7.828125 -28.671875 L 7.828125 0 Z M 2.46875 0 "/></g></g></g><g fill="#000000" fill-opacity="1"><g transform="translate(233.92761, 177.729408)"><g><path d="M 2.46875 0 L 2.46875 -28.671875 L 7.828125 -28.671875 L 7.828125 0 Z M 2.46875 0 "/></g></g></g><g fill="#38b6ff" fill-opacity="1"><g transform="translate(243.553567, 177.729408)"><g><path d="M 14.4375 0.328125 C 12.65625 0.328125 10.988281 -0.00390625 9.4375 -0.671875 C 7.882812 -1.335938 6.515625 -2.265625 5.328125 -3.453125 C 4.148438 -4.640625 3.222656 -6.003906 2.546875 -7.546875 C 1.878906 -9.097656 1.546875 -10.769531 1.546875 -12.5625 C 1.546875 -14.34375 1.878906 -16.003906 2.546875 -17.546875 C 3.222656 -19.097656 4.148438 -20.46875 5.328125 -21.65625 C 6.515625 -22.84375 7.882812 -23.769531 9.4375 -24.4375 C 10.988281 -25.113281 12.65625 -25.453125 14.4375 -25.453125 C 16.925781 -25.453125 19.1875 -24.816406 21.21875 -23.546875 C 23.257812 -22.273438 24.804688 -20.609375 25.859375 -18.546875 L 21.09375 -16.078125 C 20.476562 -17.273438 19.582031 -18.234375 18.40625 -18.953125 C 17.238281 -19.679688 15.914062 -20.046875 14.4375 -20.046875 C 13.039062 -20.046875 11.773438 -19.71875 10.640625 -19.0625 C 9.515625 -18.40625 8.625 -17.507812 7.96875 -16.375 C 7.3125 -15.25 6.984375 -13.976562 6.984375 -12.5625 C 6.984375 -11.132812 7.3125 -9.851562 7.96875 -8.71875 C 8.625 -7.59375 9.515625 -6.703125 10.640625 -6.046875 C 11.773438 -5.390625 13.039062 -5.0625 14.4375 -5.0625 C 15.914062 -5.0625 17.238281 -5.421875 18.40625 -6.140625 C 19.582031 -6.867188 20.476562 -7.835938 21.09375 -9.046875 L 25.859375 -6.578125 C 24.804688 -4.535156 23.257812 -2.875 21.21875 -1.59375 C 19.1875 -0.3125 16.925781 0.328125 14.4375 0.328125 Z M 14.4375 0.328125 "/></g></g></g><g fill="#38b6ff" fill-opacity="1"><g transform="translate(269.835517, 177.729408)"><g><path d="M 2.46875 0 L 2.46875 -28.671875 L 7.828125 -28.671875 L 7.828125 0 Z M 2.46875 0 "/></g></g></g><g fill="#38b6ff" fill-opacity="1"><g transform="translate(279.460959, 177.729408)"><g><path d="M 5.234375 -19.546875 C 4.453125 -19.546875 3.765625 -19.835938 3.171875 -20.421875 C 2.585938 -21.003906 2.296875 -21.6875 2.296875 -22.46875 C 2.296875 -23.28125 2.585938 -23.972656 3.171875 -24.546875 C 3.765625 -25.117188 4.453125 -25.40625 5.234375 -25.40625 C 6.046875 -25.40625 6.734375 -25.117188 7.296875 -24.546875 C 7.867188 -23.972656 8.15625 -23.28125 8.15625 -22.46875 C 8.15625 -21.6875 7.867188 -21.003906 7.296875 -20.421875 C 6.734375 -19.835938 6.046875 -19.546875 5.234375 -19.546875 Z M 2.546875 0 L 2.546875 -16.75 L 7.875 -16.75 L 7.875 0 Z M 2.546875 0 "/></g></g></g><g fill="#38b6ff" fill-opacity="1"><g transform="translate(289.253805, 177.729408)"><g><path d="M 12.59375 -17.078125 C 13.707031 -17.078125 14.710938 -16.789062 15.609375 -16.21875 C 16.503906 -15.644531 17.222656 -14.867188 17.765625 -13.890625 C 18.304688 -12.921875 18.578125 -11.820312 18.578125 -10.59375 L 18.578125 0 L 13.265625 0 L 13.265625 -9.703125 C 13.265625 -10.460938 13.019531 -11.09375 12.53125 -11.59375 C 12.039062 -12.09375 11.40625 -12.34375 10.625 -12.34375 C 9.84375 -12.34375 9.179688 -12.09375 8.640625 -11.59375 C 8.097656 -11.09375 7.828125 -10.460938 7.828125 -9.703125 L 7.828125 0 L 2.46875 0 L 2.46875 -16.75 L 7.828125 -16.75 L 7.828125 -14.6875 C 8.410156 -15.414062 9.113281 -15.992188 9.9375 -16.421875 C 10.757812 -16.859375 11.644531 -17.078125 12.59375 -17.078125 Z M 12.59375 -17.078125 "/></g></g></g><g fill="#f10000" fill-opacity="1"><g transform="translate(309.307469, 177.729408)"><g/></g></g><g fill="#38b6ff" fill-opacity="1"><g transform="translate(318.682468, 177.729408)"><g><path d="M 20.34375 -16.75 L 13.265625 -8.328125 L 20.34375 0 L 13.9375 0 L 10.09375 -4.5625 L 6.234375 0 L -0.203125 0 L 6.859375 -8.375 L -0.203125 -16.75 L 6.15625 -16.75 L 10.046875 -12.140625 L 13.9375 -16.75 Z M 20.34375 -16.75 "/></g></g></g><g clip-path="url(#02a3a76c9b)"><path fill="#38b6ff" d="M 311.175781 161.675781 L 316.664062 161.675781 L 316.664062 178.292969 L 311.175781 178.292969 Z M 311.175781 161.675781 " fill-opacity="1" fill-rule="nonzero"/></g><g clip-path="url(#93c3148f2d)"><path fill="#db0c0c" d="M 306.601562 138.691406 C 305.460938 138.691406 304.535156 139.617188 304.535156 140.757812 L 304.535156 155.386719 C 304.535156 156.527344 305.460938 157.453125 306.601562 157.453125 L 321.230469 157.453125 C 322.371094 157.453125 323.296875 156.527344 323.296875 155.386719 L 323.296875 140.757812 C 323.296875 139.617188 322.371094 138.691406 321.230469 138.691406 Z M 321.230469 159.554688 L 306.601562 159.554688 C 304.300781 159.554688 302.433594 157.6875 302.433594 155.386719 L 302.433594 140.757812 C 302.433594 138.457031 304.300781 136.589844 306.601562 136.589844 L 321.230469 136.589844 C 323.53125 136.589844 325.398438 138.457031 325.398438 140.757812 L 325.398438 155.386719 C 325.398438 157.6875 323.53125 159.554688 321.230469 159.554688 " fill-opacity="1" fill-rule="nonzero"/></g><path fill="#db0c0c" d="M 316.398438 155.757812 L 311.390625 155.757812 L 311.390625 140.386719 L 316.398438 140.386719 L 316.398438 155.757812 " fill-opacity="1" fill-rule="nonzero"/><path fill="#db0c0c" d="M 306.210938 150.578125 L 306.210938 145.566406 L 321.578125 145.566406 L 321.578125 150.578125 L 306.210938 150.578125 " fill-opacity="1" fill-rule="nonzero"/><g clip-path="url(#98b5fd8e7a)"><path fill="#a6a6a6" d="M 279.949219 190.15625 C 279.949219 190.15625 308.53125 191.265625 308.53125 191.265625 C 308.53125 191.265625 279.949219 192.375 279.949219 192.375 C 279.339844 192.402344 278.824219 191.921875 278.796875 191.308594 C 278.769531 190.667969 279.308594 190.128906 279.949219 190.15625 Z M 279.949219 190.15625 " fill-opacity="1" fill-rule="nonzero"/></g><g clip-path="url(#7f078193f9)"><path fill="#a6a6a6" d="M 275.964844 194.320312 C 275.964844 194.320312 304.542969 195.429688 304.542969 195.429688 C 304.542969 195.429688 275.964844 196.539062 275.964844 196.539062 C 275.351562 196.566406 274.835938 196.085938 274.8125 195.472656 C 274.785156 194.832031 275.320312 194.292969 275.964844 194.320312 Z M 275.964844 194.320312 " fill-opacity="1" fill-rule="nonzero"/></g><g clip-path="url(#49d3f5562a)"><path fill="#a6a6a6" d="M 282.546875 198.492188 C 282.546875 198.492188 311.125 199.601562 311.125 199.601562 C 311.125 199.601562 282.546875 200.710938 282.546875 200.710938 C 281.933594 200.734375 281.417969 200.257812 281.394531 199.644531 C 281.367188 199.003906 281.90625 198.464844 282.546875 198.492188 Z M 282.546875 198.492188 " fill-opacity="1" fill-rule="nonzero"/></g><g fill="#a6a6a6" fill-opacity="1"><g transform="translate(182.15904, 202.576407)"><g><path d="M 1.84375 0 C 1.84375 0 1.84375 -6.425781 1.84375 -19.28125 C 1.84375 -19.28125 5.300781 -19.28125 12.21875 -19.28125 C 12.21875 -19.28125 12.21875 -18.144531 12.21875 -15.875 C 12.21875 -15.875 9.957031 -15.875 5.4375 -15.875 C 5.4375 -15.875 5.4375 -14.359375 5.4375 -11.328125 C 5.4375 -11.328125 7.601562 -11.328125 11.9375 -11.328125 C 11.9375 -11.328125 11.9375 -10.191406 11.9375 -7.921875 C 11.9375 -7.921875 9.769531 -7.921875 5.4375 -7.921875 C 5.4375 -7.921875 5.4375 -6.421875 5.4375 -3.421875 C 5.4375 -3.421875 7.695312 -3.421875 12.21875 -3.421875 C 12.21875 -3.421875 12.21875 -2.28125 12.21875 0 C 12.21875 0 8.757812 0 1.84375 0 Z M 1.84375 0 "/></g></g></g><g fill="#a6a6a6" fill-opacity="1"><g transform="translate(195.316047, 202.576407)"><g><path d="M 1.765625 0 C 1.765625 0 1.765625 -3.769531 1.765625 -11.3125 C 1.765625 -11.3125 1.347656 -11.3125 0.515625 -11.3125 C 0.515625 -11.3125 0.515625 -12.273438 0.515625 -14.203125 C 0.515625 -14.203125 0.929688 -14.203125 1.765625 -14.203125 C 1.859375 -15.128906 1.992188 -15.847656 2.171875 -16.359375 C 2.347656 -16.867188 2.628906 -17.335938 3.015625 -17.765625 C 3.898438 -18.773438 5.078125 -19.28125 6.546875 -19.28125 C 6.847656 -19.28125 7.140625 -19.265625 7.421875 -19.234375 L 7.421875 -15.953125 C 7.421875 -15.953125 7.296875 -15.953125 7.046875 -15.953125 C 6.390625 -15.953125 5.929688 -15.820312 5.671875 -15.5625 C 5.410156 -15.3125 5.269531 -14.859375 5.25 -14.203125 L 7.203125 -14.203125 C 7.203125 -14.203125 7.203125 -13.238281 7.203125 -11.3125 C 7.203125 -11.3125 6.550781 -11.3125 5.25 -11.3125 C 5.25 -11.3125 5.25 -7.539062 5.25 0 C 5.25 0 4.085938 0 1.765625 0 Z M 1.765625 0 "/></g></g></g><g fill="#a6a6a6" fill-opacity="1"><g transform="translate(202.468408, 202.576407)"><g><path d="M 1.765625 0 C 1.765625 0 1.765625 -3.769531 1.765625 -11.3125 C 1.765625 -11.3125 1.347656 -11.3125 0.515625 -11.3125 C 0.515625 -11.3125 0.515625 -12.273438 0.515625 -14.203125 C 0.515625 -14.203125 0.929688 -14.203125 1.765625 -14.203125 C 1.859375 -15.128906 1.992188 -15.847656 2.171875 -16.359375 C 2.347656 -16.867188 2.628906 -17.335938 3.015625 -17.765625 C 3.898438 -18.773438 5.078125 -19.28125 6.546875 -19.28125 C 6.847656 -19.28125 7.140625 -19.265625 7.421875 -19.234375 L 7.421875 -15.953125 C 7.421875 -15.953125 7.296875 -15.953125 7.046875 -15.953125 C 6.390625 -15.953125 5.929688 -15.820312 5.671875 -15.5625 C 5.410156 -15.3125 5.269531 -14.859375 5.25 -14.203125 L 7.203125 -14.203125 C 7.203125 -14.203125 7.203125 -13.238281 7.203125 -11.3125 C 7.203125 -11.3125 6.550781 -11.3125 5.25 -11.3125 C 5.25 -11.3125 5.25 -7.539062 5.25 0 C 5.25 0 4.085938 0 1.765625 0 Z M 1.765625 0 "/></g></g></g><g fill="#a6a6a6" fill-opacity="1"><g transform="translate(209.620767, 202.576407)"><g><path d="M 1.421875 0 C 1.421875 0 1.421875 -4.820312 1.421875 -14.46875 C 1.421875 -14.46875 2.570312 -14.46875 4.875 -14.46875 C 4.875 -14.46875 4.875 -9.644531 4.875 0 C 4.875 0 3.722656 0 1.421875 0 Z M 1.421875 -16.03125 C 1.421875 -16.03125 1.421875 -17.113281 1.421875 -19.28125 C 1.421875 -19.28125 2.570312 -19.28125 4.875 -19.28125 C 4.875 -19.28125 4.875 -18.195312 4.875 -16.03125 C 4.875 -16.03125 3.722656 -16.03125 1.421875 -16.03125 Z M 1.421875 -16.03125 "/></g></g></g><g fill="#a6a6a6" fill-opacity="1"><g transform="translate(215.383516, 202.576407)"><g><path d="M 11.734375 -4.75 C 11.734375 -4.75 13.035156 -4.75 15.640625 -4.75 C 15.035156 -3.125 14.109375 -1.867188 12.859375 -0.984375 C 11.617188 -0.0976562 10.15625 0.34375 8.46875 0.34375 C 7.414062 0.34375 6.410156 0.144531 5.453125 -0.25 C 4.492188 -0.65625 3.671875 -1.191406 2.984375 -1.859375 C 2.296875 -2.535156 1.75 -3.335938 1.34375 -4.265625 C 0.9375 -5.203125 0.734375 -6.191406 0.734375 -7.234375 C 0.734375 -8.617188 1.066406 -9.890625 1.734375 -11.046875 C 2.398438 -12.210938 3.316406 -13.128906 4.484375 -13.796875 C 5.660156 -14.460938 6.945312 -14.796875 8.34375 -14.796875 C 9.382812 -14.796875 10.375 -14.609375 11.3125 -14.234375 C 12.25 -13.867188 13.070312 -13.34375 13.78125 -12.65625 C 14.238281 -12.207031 14.597656 -11.769531 14.859375 -11.34375 C 15.128906 -10.914062 15.390625 -10.347656 15.640625 -9.640625 L 11.734375 -9.640625 C 11.046875 -10.953125 9.914062 -11.609375 8.34375 -11.609375 C 7.144531 -11.609375 6.160156 -11.203125 5.390625 -10.390625 C 4.617188 -9.578125 4.234375 -8.53125 4.234375 -7.25 C 4.234375 -5.988281 4.632812 -4.9375 5.4375 -4.09375 C 6.238281 -3.257812 7.238281 -2.84375 8.4375 -2.84375 C 9.15625 -2.84375 9.773438 -2.992188 10.296875 -3.296875 C 10.816406 -3.609375 11.296875 -4.09375 11.734375 -4.75 Z M 11.734375 -4.75 "/></g></g></g><g fill="#a6a6a6" fill-opacity="1"><g transform="translate(231.179506, 202.576407)"><g><path d="M 1.421875 0 C 1.421875 0 1.421875 -4.820312 1.421875 -14.46875 C 1.421875 -14.46875 2.570312 -14.46875 4.875 -14.46875 C 4.875 -14.46875 4.875 -9.644531 4.875 0 C 4.875 0 3.722656 0 1.421875 0 Z M 1.421875 -16.03125 C 1.421875 -16.03125 1.421875 -17.113281 1.421875 -19.28125 C 1.421875 -19.28125 2.570312 -19.28125 4.875 -19.28125 C 4.875 -19.28125 4.875 -18.195312 4.875 -16.03125 C 4.875 -16.03125 3.722656 -16.03125 1.421875 -16.03125 Z M 1.421875 -16.03125 "/></g></g></g><g fill="#a6a6a6" fill-opacity="1"><g transform="translate(236.942258, 202.576407)"><g><path d="M 15.6875 -5.6875 C 15.6875 -5.6875 11.953125 -5.6875 4.484375 -5.6875 C 4.703125 -4.8125 5.164062 -4.117188 5.875 -3.609375 C 6.59375 -3.097656 7.460938 -2.84375 8.484375 -2.84375 C 9.203125 -2.84375 9.796875 -2.953125 10.265625 -3.171875 C 10.742188 -3.390625 11.210938 -3.757812 11.671875 -4.28125 L 15.453125 -4.28125 C 15.242188 -3.625 14.859375 -2.953125 14.296875 -2.265625 C 12.804688 -0.523438 10.894531 0.34375 8.5625 0.34375 C 7.476562 0.34375 6.453125 0.148438 5.484375 -0.234375 C 4.515625 -0.628906 3.679688 -1.160156 2.984375 -1.828125 C 2.296875 -2.492188 1.75 -3.289062 1.34375 -4.21875 C 0.9375 -5.15625 0.734375 -6.140625 0.734375 -7.171875 C 0.734375 -8.566406 1.066406 -9.847656 1.734375 -11.015625 C 2.410156 -12.191406 3.332031 -13.113281 4.5 -13.78125 C 5.675781 -14.457031 6.957031 -14.796875 8.34375 -14.796875 C 9.769531 -14.796875 11.050781 -14.460938 12.1875 -13.796875 C 13.320312 -13.128906 14.210938 -12.203125 14.859375 -11.015625 C 15.503906 -9.835938 15.828125 -8.507812 15.828125 -7.03125 C 15.828125 -6.550781 15.78125 -6.101562 15.6875 -5.6875 Z M 4.390625 -8.75 L 12.40625 -8.75 C 12.1875 -9.675781 11.726562 -10.382812 11.03125 -10.875 C 10.34375 -11.363281 9.46875 -11.609375 8.40625 -11.609375 C 7.363281 -11.609375 6.5 -11.363281 5.8125 -10.875 C 5.132812 -10.382812 4.660156 -9.675781 4.390625 -8.75 Z M 4.390625 -8.75 "/></g></g></g><g fill="#a6a6a6" fill-opacity="1"><g transform="translate(252.967728, 202.576407)"><g><path d="M 1.421875 0 C 1.421875 0 1.421875 -4.820312 1.421875 -14.46875 C 1.421875 -14.46875 2.484375 -14.46875 4.609375 -14.46875 C 4.609375 -14.46875 4.609375 -14.003906 4.609375 -13.078125 C 5.253906 -13.703125 5.882812 -14.144531 6.5 -14.40625 C 7.125 -14.664062 7.851562 -14.796875 8.6875 -14.796875 C 10.800781 -14.796875 12.34375 -14.054688 13.3125 -12.578125 C 13.65625 -12.015625 13.894531 -11.378906 14.03125 -10.671875 C 14.175781 -9.972656 14.25 -9 14.25 -7.75 L 14.25 0 L 10.78125 0 C 10.78125 0 10.78125 -2.359375 10.78125 -7.078125 C 10.78125 -8.941406 10.535156 -10.171875 10.046875 -10.765625 C 9.578125 -11.328125 8.898438 -11.609375 8.015625 -11.609375 C 6.828125 -11.609375 5.96875 -11.144531 5.4375 -10.21875 C 5.21875 -9.882812 5.066406 -9.46875 4.984375 -8.96875 C 4.910156 -8.476562 4.875 -7.765625 4.875 -6.828125 L 4.875 0 C 4.875 0 3.722656 0 1.421875 0 Z M 1.421875 0 "/></g></g></g><g fill="#a6a6a6" fill-opacity="1"><g transform="translate(268.049792, 202.576407)"><g><path d="M 2.046875 0 C 2.046875 0 2.046875 -3.769531 2.046875 -11.3125 C 2.046875 -11.3125 1.476562 -11.3125 0.34375 -11.3125 C 0.34375 -11.3125 0.34375 -12.363281 0.34375 -14.46875 C 0.34375 -14.46875 0.910156 -14.46875 2.046875 -14.46875 C 2.046875 -14.46875 2.046875 -16.070312 2.046875 -19.28125 C 2.046875 -19.28125 3.195312 -19.28125 5.5 -19.28125 C 5.5 -19.28125 5.5 -17.675781 5.5 -14.46875 C 5.5 -14.46875 6.195312 -14.46875 7.59375 -14.46875 C 7.59375 -14.46875 7.59375 -13.414062 7.59375 -11.3125 C 7.59375 -11.3125 6.894531 -11.3125 5.5 -11.3125 C 5.5 -11.3125 5.5 -7.539062 5.5 0 C 5.5 0 4.347656 0 2.046875 0 Z M 2.046875 0 "/></g></g></g></svg>